<svg viewBox="0 0 1200 800" xmlns="http://www.w3.org/2000/svg">
  <defs>
    <linearGradient id="twilightSky" x1="0%" y1="0%" x2="0%" y2="100%">
      <stop offset="0%" style="stop-color:#FF6B6B;stop-opacity:0.8" />
      <stop offset="30%" style="stop-color:#4ECDC4;stop-opacity:0.6" />
      <stop offset="70%" style="stop-color:#45B7D1;stop-opacity:0.4" />
      <stop offset="100%" style="stop-color:#96CEB4;stop-opacity:0.3" />
    </linearGradient>
    <radialGradient id="sunsetGlow" cx="20%" cy="30%" r="60%">
      <stop offset="0%" style="stop-color:#FFD93D;stop-opacity:0.8" />
      <stop offset="50%" style="stop-color:#FF6B6B;stop-opacity:0.4" />
      <stop offset="100%" style="stop-color:#4ECDC4;stop-opacity:0.2" />
    </radialGradient>
    <linearGradient id="buildingGradient" x1="0%" y1="0%" x2="0%" y2="100%">
      <stop offset="0%" style="stop-color:#F4A261;stop-opacity:0.9" />
      <stop offset="100%" style="stop-color:#E76F51;stop-opacity:0.7" />
    </linearGradient>
  </defs>
  
  <!-- Sky background -->
  <rect width="1200" height="800" fill="url(#twilightSky)"/>
  
  <!-- Sunset glow -->
  <ellipse cx="200" cy="250" rx="300" ry="200" fill="url(#sunsetGlow)"/>
  
  <!-- Distant mountains -->
  <polygon points="0,500 200,400 400,450 600,380 800,420 1000,360 1200,400 1200,800 0,800" fill="#8B7355" opacity="0.4"/>
  <polygon points="100,550 300,480 500,520 700,450 900,490 1100,430 1200,460 1200,800 0,800" fill="#A0522D" opacity="0.3"/>
  
  <!-- Verona cityscape -->
  <g opacity="0.6">
    <!-- Medieval towers and buildings -->
    <rect x="150" y="400" width="40" height="200" fill="url(#buildingGradient)"/>
    <polygon points="150,400 170,350 190,400" fill="#E76F51"/>
    
    <rect x="220" y="450" width="35" height="150" fill="url(#buildingGradient)"/>
    <polygon points="220,450 237.5,420 255,450" fill="#E76F51"/>
    
    <rect x="280" y="420" width="50" height="180" fill="url(#buildingGradient)"/>
    <polygon points="280,420 305,380 330,420" fill="#E76F51"/>
    
    <rect x="360" y="460" width="30" height="140" fill="url(#buildingGradient)"/>
    <rect x="420" y="440" width="45" height="160" fill="url(#buildingGradient)"/>
    <polygon points="420,440 442.5,400 465,440" fill="#E76F51"/>
    
    <!-- Arena di Verona (amphitheater) -->
    <ellipse cx="600" cy="550" rx="80" ry="30" fill="#D2B48C" opacity="0.8"/>
    <ellipse cx="600" cy="540" rx="75" ry="25" fill="#F5DEB3" opacity="0.9"/>
    <ellipse cx="600" cy="530" rx="70" ry="20" fill="#DDD" opacity="0.7"/>
    
    <!-- More buildings -->
    <rect x="750" y="470" width="40" height="130" fill="url(#buildingGradient)"/>
    <rect x="820" y="450" width="35" height="150" fill="url(#buildingGradient)"/>
    <polygon points="820,450 837.5,420 855,450" fill="#E76F51"/>
    
    <rect x="880" y="480" width="45" height="120" fill="url(#buildingGradient)"/>
    <rect x="950" y="460" width="38" height="140" fill="url(#buildingGradient)"/>
    <polygon points="950,460 969,430 988,460" fill="#E76F51"/>
  </g>
  
  <!-- River Adige -->
  <path d="M 0,650 Q 300,630 600,640 Q 900,650 1200,630 L 1200,800 L 0,800 Z" fill="#4ECDC4" opacity="0.3"/>
  <path d="M 0,660 Q 300,640 600,650 Q 900,660 1200,640 L 1200,670 Q 900,680 600,670 Q 300,660 0,680 Z" fill="#45B7D1" opacity="0.4"/>
  
  <!-- Ponte Pietra (stone bridge) -->
  <g transform="translate(500, 620)">
    <ellipse cx="0" cy="20" rx="60" ry="15" fill="#8B7355" opacity="0.8"/>
    <rect x="-65" y="5" width="130" height="10" fill="#A0522D" opacity="0.9"/>
    <rect x="-70" y="0" width="140" height="5" fill="#D2B48C"/>
    <!-- Bridge arches -->
    <ellipse cx="-30" cy="15" rx="15" ry="8" fill="#4ECDC4" opacity="0.6"/>
    <ellipse cx="0" cy="15" rx="15" ry="8" fill="#4ECDC4" opacity="0.6"/>
    <ellipse cx="30" cy="15" rx="15" ry="8" fill="#4ECDC4" opacity="0.6"/>
  </g>
  
  <!-- Floating romantic elements -->
  <g opacity="0.3">
    <!-- Rose petals -->
    <ellipse cx="300" cy="200" rx="3" ry="6" fill="#FF69B4" transform="rotate(45)"/>
    <ellipse cx="450" cy="150" rx="3" ry="6" fill="#DC143C" transform="rotate(-30)"/>
    <ellipse cx="700" cy="180" rx="3" ry="6" fill="#FF1493" transform="rotate(60)"/>
    <ellipse cx="850" cy="220" rx="3" ry="6" fill="#FF69B4" transform="rotate(-45)"/>
    <ellipse cx="1000" cy="160" rx="3" ry="6" fill="#DC143C" transform="rotate(30)"/>
    
    <!-- Hearts -->
    <path d="M 200,300 C 195,295 185,295 185,305 C 185,295 175,295 170,300 C 175,310 185,320 200,330 C 215,320 225,310 230,300 C 225,295 215,295 215,305 C 215,295 205,295 200,300 Z" fill="#FF69B4"/>
    <path d="M 900,250 C 897,247 892,247 892,252 C 892,247 887,247 884,250 C 887,257 892,264 900,270 C 908,264 913,257 916,250 C 913,247 908,247 908,252 C 908,247 903,247 900,250 Z" fill="#DC143C"/>
  </g>
  
  <!-- Soft clouds -->
  <ellipse cx="800" cy="150" rx="60" ry="20" fill="#FFFFFF" opacity="0.4"/>
  <ellipse cx="820" cy="140" rx="40" ry="15" fill="#FFFFFF" opacity="0.3"/>
  <ellipse cx="1000" cy="120" rx="50" ry="18" fill="#FFFFFF" opacity="0.4"/>
  <ellipse cx="1020" cy="110" rx="35" ry="12" fill="#FFFFFF" opacity="0.3"/>
  
  <!-- Subtle texture overlay -->
  <rect width="1200" height="800" fill="url(#twilightSky)" opacity="0.1"/>
</svg>